<?xml version="1.0" encoding="utf-8"?>
<!-- Generator: Adobe Illustrator 25.2.3, SVG Export Plug-In . SVG Version: 6.00 Build 0)  -->
<svg version="1.1" id="Layer_1" xmlns="http://www.w3.org/2000/svg" xmlns:xlink="http://www.w3.org/1999/xlink" x="0px" y="0px"
	 viewBox="0 0 50 50" style="enable-background:new 0 0 50 50;" xml:space="preserve">
<style type="text/css">
	.st0{fill:url(#SVGID_1_);}
</style>
<radialGradient id="SVGID_1_" cx="384.9192" cy="726.5418" r="23.2279" gradientTransform="matrix(0.2445 0.9696 -0.9696 0.2445 634.313 -525.4961)" gradientUnits="userSpaceOnUse">
	<stop  offset="0" style="stop-color:#8BC53F"/>
	<stop  offset="0.26" style="stop-color:#7AC141"/>
	<stop  offset="0.77" style="stop-color:#4DB847"/>
	<stop  offset="1" style="stop-color:#37B34A"/>
</radialGradient>
<path class="st0" d="M24,40c-4.9,3-10.5,4.6-16.5,4.3c4-3,8.9-4.6,14.5-4.9C13.8,38,6.6,34.7,0.6,30.1C5.6,30.4,14.8,32.4,23,38
	l-0.3-0.3c-2.3-2.3-4.9-4.3-7.2-6.6c-4.6-4.9-7.6-10.5-9.2-16.5v-0.3c4.3,2.6,7.9,5.9,11.2,9.9c3,3.6,4.9,7.9,6.3,11.9H24
	c0-0.3,0-0.7-0.3-1.3c0-0.3-0.3-0.7-0.3-1.3c-0.7-3.3-1.6-6.6-2.3-9.9c-0.7-4.6-0.3-8.9,1-13.5c0.7-2.6,1.6-5.3,3-7.6
	c0,0,0.3-0.3,0.3-0.7c0.3,1,0.7,2,1.3,2.6c2.3,5.6,3.3,11.5,2.6,17.5c-0.3,3.3-1.3,6.6-2,9.9c-0.3,1.3-0.7,2.3-1,3.6
	c0,0.3,0,0.7,0,0.7c0-0.3,0.3-0.3,0.3-0.7c1.3-3.3,2.6-6.3,4.6-9.2c3.3-4.6,7.2-8.2,11.9-11.2c0,0,0.3,0,0.3-0.3
	c-0.3,1-0.7,2-0.7,2.6c-2,6.3-5.9,11.9-11.9,16.8c-1.3,1-2.6,2.3-4,3.3l-0.3,0.3c4.9-3.3,10.5-5.9,17.1-7.2c2-0.3,4-0.7,5.6-1
	c-5.9,4.9-13.2,7.9-21.4,9.2c2.6,0,5.3,0.7,7.9,1.6c2.3,0.7,4.6,2,6.6,3.6c-5.9,0.3-11.5-1.3-16.5-4.3v0.7c0,2.3,0,4.6,0,6.9
	c0,0.7-0.3,1-1,1c-0.7,0-1-0.3-1-1c0-2.3,0-4.6,0-6.9V40z"/>
</svg>
