<?xml version="1.0" standalone="no"?>
<!DOCTYPE svg PUBLIC "-//W3C//DTD SVG 20010904//EN"
 "http://www.w3.org/TR/2001/REC-SVG-20010904/DTD/svg10.dtd">
<svg version="1.0" xmlns="http://www.w3.org/2000/svg"
 width="512.000000pt" height="512.000000pt" viewBox="0 0 512.000000 512.000000"
 preserveAspectRatio="xMidYMid meet">
<metadata>
Created by potrace 1.14, written by Peter Selinger 2001-2017
</metadata>
<g transform="translate(0.000000,512.000000) scale(0.100000,-0.100000)"
fill="#000000" stroke="none">
<path d="M2218 4785 c-2 -1 -32 -6 -68 -9 -103 -11 -128 -15 -250 -42 -378
-85 -698 -259 -960 -523 -197 -199 -328 -401 -451 -696 -57 -135 -123 -392
-143 -550 -3 -22 -8 -58 -11 -80 -22 -168 -22 -453 0 -645 41 -364 165 -716
348 -991 63 -94 80 -116 145 -190 37 -42 43 -31 -63 -124 -37 -33 -73 -65 -79
-71 -24 -23 -360 -324 -410 -367 -71 -62 -76 -68 -76 -97 0 -39 40 -52 73 -23
12 10 45 39 72 63 28 25 84 74 125 110 41 36 97 85 125 110 70 64 297 262 317
278 14 11 21 9 45 -15 86 -88 270 -223 398 -292 33 -18 65 -36 70 -40 20 -16
233 -100 325 -129 89 -28 242 -65 320 -77 19 -3 49 -7 65 -10 124 -20 519 -28
645 -12 189 23 316 49 460 97 651 213 1087 745 1239 1508 12 57 23 129 27 160
3 31 7 68 10 82 2 14 7 87 11 163 l6 137 -292 0 c-164 0 -291 4 -291 9 0 9 66
149 189 403 33 70 61 133 61 141 0 7 4 17 9 23 4 5 13 23 19 39 27 77 147 354
209 485 79 162 133 279 133 285 0 2 15 37 34 77 18 40 53 118 76 173 24 55 57
132 75 170 17 39 39 89 49 111 20 47 49 65 92 58 58 -10 67 -9 77 8 9 13 6 42
-12 119 -34 151 -35 153 -77 146 -51 -8 -159 -64 -200 -102 -31 -30 -34 -36
-22 -54 7 -11 24 -25 38 -31 42 -17 54 -45 35 -83 -9 -18 -42 -88 -72 -157
-52 -118 -72 -161 -138 -305 -15 -33 -45 -100 -67 -150 -22 -49 -62 -137 -89
-194 -27 -57 -49 -105 -49 -107 0 -1 -26 -58 -58 -126 -49 -101 -99 -215 -163
-363 -4 -11 -56 -126 -115 -255 -59 -129 -115 -254 -126 -277 l-19 -43 -624 0
-625 0 0 -168 0 -167 539 0 c297 0 542 -3 545 -6 4 -3 -17 -55 -45 -115 -28
-60 -64 -136 -79 -169 -15 -33 -44 -96 -65 -140 -20 -44 -55 -119 -77 -166
l-40 -87 -31 8 c-18 5 -75 20 -127 34 -52 15 -102 28 -110 30 -25 7 -382 105
-420 116 -32 9 -247 68 -515 141 -210 57 -216 59 -227 85 -8 17 -19 24 -39 24
-27 0 -48 -18 -260 -220 -14 -14 -66 -61 -115 -105 -49 -44 -91 -82 -94 -85
-3 -3 -59 -52 -125 -109 -66 -58 -125 -111 -131 -118 -12 -14 -23 -2 -116 132
-35 50 -142 260 -166 325 -36 95 -65 195 -87 295 -42 195 -50 281 -50 520 1
225 7 294 49 500 96 475 377 910 737 1140 166 107 379 193 539 219 19 3 46 8
60 11 82 17 269 23 405 12 554 -42 1006 -311 1380 -821 l20 -27 81 58 c45 32
113 81 152 108 39 28 72 55 72 62 0 11 -96 146 -148 205 -237 275 -502 468
-812 593 -284 115 -547 162 -892 163 -97 0 -178 -1 -180 -3z m1878 -2680 c-7
-99 -15 -160 -33 -235 -8 -36 -16 -72 -18 -80 -6 -28 -77 -214 -97 -255 -169
-339 -465 -606 -819 -738 -96 -36 -225 -72 -295 -82 -21 -3 -44 -8 -50 -10
-21 -7 -198 -18 -284 -18 -91 0 -279 11 -290 18 -3 2 -24 6 -47 9 -66 8 -203
43 -298 76 -200 71 -402 194 -554 336 l-90 85 52 46 c102 90 190 168 201 178
15 13 323 283 360 315 16 14 36 32 45 41 18 19 16 19 496 -111 260 -71 292
-79 679 -183 231 -63 283 -80 307 -102 21 -21 34 -26 52 -21 27 6 40 29 112
201 43 101 144 330 194 440 15 33 36 81 47 107 10 26 26 49 34 50 8 2 79 3
158 3 l143 0 -5 -70z"/>
</g>
</svg>
