<?xml version="1.0" standalone="no"?>
<!DOCTYPE svg PUBLIC "-//W3C//DTD SVG 20010904//EN"
 "http://www.w3.org/TR/2001/REC-SVG-20010904/DTD/svg10.dtd">
<svg version="1.0" xmlns="http://www.w3.org/2000/svg"
 width="900.000000pt" height="900.000000pt" viewBox="0 0 900.000000 900.000000"
 preserveAspectRatio="xMidYMid meet">
<metadata>
Created by potrace 1.10, written by Peter Selinger 2001-2011
</metadata>
<g transform="translate(0.000000,900.000000) scale(0.100000,-0.100000)"
fill="#000000" stroke="none">
<path d="M1672 8980 c-7 -11 -19 -20 -27 -20 -23 0 -113 -68 -129 -98 -55
-102 -51 -9 -51 -1067 0 -830 3 -976 15 -1009 8 -22 40 -65 70 -96 86 -89 104
-93 470 -98 269 -3 312 -1 365 14 121 36 187 99 224 215 8 25 11 305 11 975 0
1024 2 981 -57 1063 -31 43 -103 101 -126 101 -9 0 -22 9 -29 20 -12 19 -24
20 -368 20 -344 0 -356 -1 -368 -20z"/>
<path d="M6557 8982 c-2 -11 -17 -22 -36 -25 -39 -8 -118 -85 -149 -145 l-22
-43 0 -973 c0 -906 1 -977 18 -1013 41 -91 101 -143 197 -173 73 -22 647 -22
720 0 82 25 131 64 183 144 l27 41 0 990 0 990 -23 47 c-26 53 -102 125 -141
135 -33 7 -52 23 -45 34 3 5 -150 9 -359 9 -346 0 -365 -1 -370 -18z"/>
<path d="M3240 7992 c-7 -3 -10 -200 -10 -565 0 -523 -3 -597 -29 -727 -25
-126 -107 -278 -217 -402 -38 -43 -163 -144 -194 -158 -14 -6 -44 -21 -66 -34
-23 -13 -66 -31 -95 -40 -30 -10 -67 -22 -84 -28 -61 -21 -249 -29 -595 -25
-306 3 -359 6 -387 20 -18 10 -41 17 -52 17 -20 0 -51 12 -136 52 -157 75
-305 211 -380 352 -12 22 -34 62 -49 88 -14 26 -26 56 -26 67 0 11 -6 35 -14
53 -30 69 -36 204 -36 750 0 424 -3 548 -12 556 -17 13 -151 -1 -207 -22 -48
-19 -155 -69 -186 -89 -33 -21 -139 -109 -158 -131 -56 -67 -92 -115 -104
-141 -8 -16 -25 -50 -38 -75 -13 -25 -24 -53 -24 -63 -1 -10 -6 -28 -13 -40
-7 -12 -17 -58 -22 -102 -13 -114 -13 -6524 1 -6630 24 -188 140 -389 296
-510 41 -32 103 -71 127 -81 8 -3 23 -10 32 -15 15 -8 68 -26 174 -59 42 -14
7466 -14 7508 0 106 33 159 51 174 59 9 5 24 12 32 15 42 17 210 140 210 154
0 4 20 29 44 55 40 45 116 185 146 267 7 19 17 71 23 115 14 106 14 6516 1
6630 -5 44 -15 90 -22 102 -7 12 -12 30 -13 40 0 10 -11 38 -24 63 -13 25 -30
59 -38 75 -12 26 -48 74 -104 141 -19 22 -125 110 -158 131 -31 20 -138 70
-186 89 -56 21 -190 35 -206 22 -10 -8 -13 -132 -13 -556 0 -546 -6 -681 -36
-750 -8 -18 -14 -42 -14 -53 0 -11 -12 -41 -26 -67 -15 -26 -37 -67 -51 -91
-78 -146 -214 -268 -402 -361 -48 -24 -94 -40 -112 -40 -11 0 -34 -7 -52 -17
-28 -14 -81 -17 -382 -20 -343 -4 -540 4 -600 25 -16 6 -54 18 -84 28 -29 9
-72 27 -95 40 -22 13 -52 28 -66 34 -31 14 -156 115 -194 158 -110 124 -192
276 -217 402 -26 130 -29 204 -29 728 0 309 -3 562 -7 562 -507 3 -2496 4
-2503 2z m4334 -3159 c33 -9 80 -28 104 -41 54 -31 124 -117 151 -189 21 -55
21 -57 21 -1751 0 -1577 -1 -1701 -17 -1747 -18 -54 -71 -142 -100 -167 -40
-35 -132 -76 -188 -84 -82 -12 -6031 -12 -6115 0 -36 5 -85 18 -110 29 -53 24
-137 105 -170 167 l-25 45 0 1750 0 1750 34 60 c32 58 105 135 127 135 5 0 16
6 22 13 7 6 39 20 70 29 53 15 289 16 3096 17 2827 1 3044 0 3100 -16z"/>
<path d="M2248 4194 c-21 -13 -50 -43 -65 -67 l-28 -42 -3 -405 c-3 -370 -2
-408 14 -440 27 -53 64 -90 112 -111 40 -18 74 -19 431 -19 l387 0 53 26 c32
16 64 43 82 67 l29 40 0 427 c0 368 -2 429 -15 440 -8 7 -15 18 -15 24 0 14
-35 45 -77 68 -30 16 -70 18 -450 17 l-418 0 -37 -25z"/>
<path d="M4030 4196 c-93 -62 -100 -99 -100 -526 0 -339 7 -428 36 -461 8 -8
14 -20 14 -25 0 -11 31 -32 84 -56 34 -16 75 -18 426 -18 351 0 392 2 426 18
53 24 84 45 84 56 0 5 6 17 14 25 8 9 19 40 25 69 15 72 15 713 0 784 -14 61
-46 108 -95 137 -34 20 -49 21 -457 20 l-422 0 -35 -23z"/>
<path d="M5825 4202 c-41 -24 -75 -54 -75 -68 0 -6 -7 -17 -15 -24 -13 -11
-15 -72 -15 -440 l0 -427 29 -40 c18 -24 50 -51 82 -67 l53 -26 387 0 c357 0
391 1 431 19 48 21 85 58 112 111 16 32 17 70 14 440 l-3 405 -28 42 c-15 24
-45 54 -67 68 l-40 25 -417 -1 c-375 0 -421 -2 -448 -17z"/>
<path d="M2294 2434 c-50 -18 -104 -68 -127 -117 -15 -31 -17 -82 -17 -432 0
-425 -1 -417 52 -485 49 -62 32 -60 507 -60 l433 0 38 30 c22 17 48 46 59 64
20 32 21 47 21 458 l0 424 -47 51 c-78 83 -77 83 -506 82 -300 0 -380 -3 -413
-15z"/>
<path d="M4070 2431 c-24 -10 -61 -34 -80 -54 -54 -53 -60 -104 -60 -494 0
-403 4 -428 73 -495 l48 -48 439 0 439 0 48 48 c69 67 73 92 73 495 0 391 -6
441 -61 495 -69 70 -87 72 -504 71 -333 0 -374 -2 -415 -18z"/>
<path d="M5850 2431 c-27 -11 -62 -38 -87 -67 l-43 -48 0 -425 c0 -410 1 -425
21 -457 11 -18 37 -47 59 -64 l38 -30 433 0 c475 0 458 -2 507 60 53 68 52 60
52 485 0 441 1 434 -68 501 -63 61 -84 64 -496 63 -335 0 -375 -2 -416 -18z"/>
</g>
</svg>
