<?xml version="1.0" encoding="utf-8"?>
<!-- Generator: Adobe Illustrator 26.0.1, SVG Export Plug-In . SVG Version: 6.00 Build 0)  -->
<svg version="1.1" id="Layer_1" xmlns="http://www.w3.org/2000/svg" xmlns:xlink="http://www.w3.org/1999/xlink" x="0px" y="0px"
	 viewBox="0 0 512 250" style="enable-background:new 0 0 512 250;" xml:space="preserve">
<style type="text/css">
	.st0{fill:#BBBDBF;}
	.st1{fill:url(#SVGID_1_);}
	.st2{fill:url(#SVGID_00000150093586227849220800000013760150184430919870_);}
	.st3{fill:url(#SVGID_00000046324940290190788890000014506900505684996769_);}
	.st4{fill:url(#SVGID_00000024706009102761154100000013196624180029311135_);}
	.st5{fill:url(#SVGID_00000158715942804017198820000005739111911010272157_);}
	.st6{fill:url(#SVGID_00000075851961520239105090000011491676164035886002_);}
	.st7{fill:url(#SVGID_00000096745725844540962020000016630874700050093237_);}
	.st8{fill:url(#SVGID_00000113330916264036601600000005661854923072145539_);}
	.st9{fill:url(#SVGID_00000177459087151458741470000017367749096552696721_);}
	.st10{fill:url(#SVGID_00000064312992412796699840000011181327339538157206_);}
	.st11{fill:url(#SVGID_00000086665614703360823830000018419160686778462866_);}
</style>
<g>
	<path class="st0" d="M186.2,96.1h19.2v13.3c-5.9,4.7-11,6-16.9,6c-18.6,0-25.8-12.8-25.8-25.1c0-15.4,9.7-27.6,25.8-27.6
		c6.5,0,14,2.7,19.1,7.5l8.8-9c-7.4-7.3-17.4-11.5-27.8-11.5c-26.5,0-39.6,19.5-39.6,40.6c0,19.7,11.5,38.2,39.6,38.2
		c13.2,0,22.5-5,29.9-13.5V83.4h-32.1v12.7H186.2z"/>
	<path class="st0" d="M346.5,75.8l-16-23.9H315v0.6L336.9,84C340.3,81.5,343.5,78.8,346.5,75.8z"/>
	
		<radialGradient id="SVGID_1_" cx="417.6082" cy="616.3865" r="242.3438" gradientTransform="matrix(1 0 0 1 -177.83 -467.26)" gradientUnits="userSpaceOnUse">
		<stop  offset="0" style="stop-color:#8BC53F"/>
		<stop  offset="0.26" style="stop-color:#7AC141"/>
		<stop  offset="0.77" style="stop-color:#4DB847"/>
		<stop  offset="1" style="stop-color:#37B34A"/>
	</radialGradient>
	<path class="st1" d="M358.2,88.9l9.5-13.6h-0.9c-7,9.2-19.1,18.2-35.3,26.3l-17.2,24.8v0.4h15.9l19.2-28.2l19.2,28.2h15.9v-0.4
		L358.2,88.9z"/>
	<path class="st0" d="M264.2,84.2L240.8,52h-16.3v72.9c4.8-0.9,9.5-1.8,14.1-2.8V72.5l23.9,32.7h2.8l24.4-32.6v35.1
		c4.9-1.8,9.6-3.7,14.1-5.6V52h-16.2L264.2,84.2z"/>
	
		<radialGradient id="SVGID_00000023966419503635662030000003884810650395194250_" cx="291.1825" cy="509.7309" r="899.8381" gradientTransform="matrix(1 0 0 1 -177.83 -467.26)" gradientUnits="userSpaceOnUse">
		<stop  offset="0" style="stop-color:#8BC53F"/>
		<stop  offset="0.26" style="stop-color:#7AC141"/>
		<stop  offset="0.77" style="stop-color:#4DB847"/>
		<stop  offset="1" style="stop-color:#37B34A"/>
	</radialGradient>
	<path style="fill:url(#SVGID_00000023966419503635662030000003884810650395194250_);" d="M276,22.1v40.3l9.5-13V22.1H276z
		 M259.4,72l4.8,6.6l4.7-6.4V34.3h-9.5V72z M242.9,49.2l9.5,13V46.3h-9.5V49.2z"/>
	
		<radialGradient id="SVGID_00000043440127369493833080000011781622453389500080_" cx="417.6082" cy="616.3865" r="242.3438" gradientTransform="matrix(1 0 0 1 -177.83 -467.26)" gradientUnits="userSpaceOnUse">
		<stop  offset="0" style="stop-color:#8BC53F"/>
		<stop  offset="0.26" style="stop-color:#7AC141"/>
		<stop  offset="0.77" style="stop-color:#4DB847"/>
		<stop  offset="1" style="stop-color:#37B34A"/>
	</radialGradient>
	<path style="fill:url(#SVGID_00000043440127369493833080000011781622453389500080_);" d="M298.4,21.1c38,5.3,63.4,17.5,65.6,34.5
		c4,30.2-66.1,64.3-156.5,76.2c-28.6,3.7-55.9,4.8-79.8,3.5c29.2,4,65.9,4,105.2-1.2c90.4-11.8,151.6-45.9,147.7-76.2
		C377.9,37.3,350.1,23.8,298.4,21.1z"/>
	
		<radialGradient id="SVGID_00000126324978284984681040000000478547147398162105_" cx="485.9301" cy="489.11" r="21.2113" gradientTransform="matrix(1 0 0 1 -177.83 -467.26)" gradientUnits="userSpaceOnUse">
		<stop  offset="0" style="stop-color:#8BC53F"/>
		<stop  offset="0.26" style="stop-color:#7AC141"/>
		<stop  offset="0.77" style="stop-color:#4DB847"/>
		<stop  offset="1" style="stop-color:#37B34A"/>
	</radialGradient>
	<path style="fill:url(#SVGID_00000126324978284984681040000000478547147398162105_);" d="M320.9,25.1c1.6,5,1.6,10.5,0,15.5
		c-1.9-4.3-2.2-8.9-1.2-14c-3.1,7.1-7.4,12.7-13,16.9c1.5-4.2,5.2-12,12.1-18.1c-0.1,0.1-0.2,0.1-0.4,0.2c-2.4,1.6-4.8,3.4-7.3,4.9
		c-5.3,3.1-10.8,4.5-16.4,4.4c-0.1,0-0.2,0-0.4-0.1c3.3-3.1,7.1-5.7,11.2-7.6c3.9-1.8,8-2.5,12-2.9v-0.2c-0.4,0-0.7,0-1.1-0.1
		c-0.4,0-0.7,0-1.1,0c-3.1-0.1-6.3-0.1-9.4-0.3c-4.2-0.3-8.2-1.6-11.9-3.7c-2.2-1.2-4.3-2.6-6.1-4.3c-0.1-0.1-0.2-0.2-0.5-0.4
		c1-0.2,1.9-0.4,2.8-0.5c5.6-0.8,11-0.4,16,1.6c2.8,1.1,5.5,2.6,8.2,4c1,0.5,2,1.1,3.1,1.6c0.2,0.1,0.5,0.1,0.7,0.1
		c-0.2-0.1-0.4-0.3-0.6-0.4c-2.5-1.9-5-3.7-7.2-6.2c-3.3-3.9-5.8-8.3-7.3-13.2c0-0.1,0-0.2-0.1-0.4c0.8,0.5,1.5,0.9,2.2,1.3
		c5.2,3.3,9.2,8,12.2,14.2c0.7,1.4,1.4,2.9,2.1,4.3c0.1,0.1,0.2,0.3,0.3,0.4c-1.8-5.2-2.8-10.7-2.5-16.6c0.1-1.8,0.3-3.5,0.4-5.3
		c2.9,6.3,4,13.3,3.3,21c0.7-2.3,1.8-4.5,3.1-6.6c1.3-1.9,2.8-3.6,4.7-5c-1,5.2-3.6,10-7.5,13.6l0.7,0.2c2,0.5,4,1,6,1.6
		c0.6,0.1,0.8,0.6,0.6,1.2c-0.2,0.6-0.6,0.9-1.2,0.8c-2-0.5-4-1-6-1.5L320.9,25.1z"/>
</g>
<g>
	<g>
		<g>
			<g>
				<path class="st0" d="M248.4,158.8c0.2-1,0.5-1.5,1-1.5s0.8,0.3,1.6,1.8l16.2,33.4l16.1-33.9c0.5-0.9,0.8-1.4,1.3-1.4
					s0.9,0.6,1.1,1.8l5.4,36.6c0.5,3.7,1.1,5.5,2.9,6c1.7,0.5,2.9,0.6,3.7,0.6c0.5,0,0.9,0.1,0.9,0.4c0,0.5-0.7,0.7-1.5,0.7
					c-1.5,0-9.7-0.2-12-0.4c-1.4-0.1-1.7-0.3-1.7-0.7c0-0.3,0.2-0.5,0.7-0.7c0.4-0.1,0.5-0.9,0.3-2.5l-3.6-26.1h-0.2l-12.9,26.9
					c-1.4,2.8-1.7,3.3-2.2,3.3s-1.1-1.2-2.1-3c-1.4-2.7-6.1-11.8-6.8-13.5c-0.5-1.2-4.1-8.7-6.2-13.2H250l-3.1,23.6
					c-0.1,1.1-0.2,1.8-0.2,2.8c0,1.1,0.8,1.7,1.8,1.9c1.1,0.2,1.9,0.3,2.5,0.3c0.5,0,0.9,0.1,0.9,0.4c0,0.5-0.5,0.7-1.4,0.7
					c-2.5,0-5.2-0.2-6.2-0.2c-1.1,0-4,0.2-5.9,0.2c-0.6,0-1.1-0.1-1.1-0.7c0-0.3,0.4-0.4,0.9-0.4s0.9,0,1.8-0.2
					c1.7-0.4,2.1-2.7,2.4-4.7L248.4,158.8z"/>
				<path class="st0" d="M309.7,190.7c-0.3,0-0.4,0.1-0.5,0.4l-2.8,6.8c-0.5,1.2-0.8,2.5-0.8,3.1c0,0.9,0.5,1.4,2.1,1.4h0.8
					c0.7,0,0.8,0.2,0.8,0.5c0,0.4-0.3,0.5-0.8,0.5c-1.7,0-4.2-0.2-5.8-0.2c-0.5,0-3.3,0.2-6,0.2c-0.7,0-0.9-0.1-0.9-0.5
					c0-0.3,0.2-0.5,0.6-0.5c0.5,0,1.1-0.1,1.5-0.1c2.4-0.4,3.3-1.9,4.3-4.4l13.6-31.7c0.6-1.4,1-2,1.5-2c0.8,0,1,0.5,1.5,1.6
					c1.2,2.8,10,23.4,13.3,31.1c2,4.6,3.5,5.2,4.4,5.4c0.8,0.1,1.4,0.2,2,0.2c0.5,0,0.7,0.2,0.7,0.5c0,0.4-0.3,0.5-2.3,0.5
					c-1.8,0-5.6,0-10-0.1c-0.9-0.1-1.5-0.1-1.5-0.4s0.1-0.5,0.7-0.5c0.4-0.1,0.7-0.5,0.5-1.1l-4-10.1c-0.1-0.3-0.3-0.4-0.5-0.4
					h-12.4V190.7z M320.8,188c0.2,0,0.3-0.1,0.2-0.3l-4.9-12.8c-0.1-0.2-0.1-0.5-0.2-0.5c-0.2,0-0.2,0.3-0.3,0.5l-5,12.8
					c-0.1,0.2,0,0.4,0.2,0.4h10V188z"/>
				<path class="st0" d="M344.9,179.9c0-7.6,0-9.1-0.1-10.7c-0.1-1.7-0.6-2.3-2.3-2.7c-0.4-0.1-1.3-0.2-2.1-0.2
					c-0.5,0-0.9-0.2-0.9-0.5c0-0.4,0.4-0.5,1.2-0.5c2.7,0,6,0.1,7.1,0.1c1.8,0,6.5-0.1,8.1-0.1c3.3,0,7.1,0.3,9.9,2.1
					c1.5,1,3.7,3.6,3.7,6.9c0,3.7-2.1,7.1-7.2,11.1c4.6,5.7,8.3,10.3,11.4,13.4c2.9,2.9,4.7,3.1,5.6,3.3c0.5,0.1,0.8,0.1,1.2,0.1
					s0.7,0.3,0.7,0.5c0,0.4-0.4,0.5-1,0.5h-5c-2.9,0-4.3-0.3-5.7-1c-2.3-1.1-4.2-3.5-7.1-7.4c-2.1-2.7-4.3-6.1-4.9-6.9
					c-0.3-0.3-0.6-0.4-0.9-0.4l-4.7-0.1c-0.2,0-0.4,0.1-0.4,0.4v0.7c0,4.7,0.1,8.6,0.3,10.7c0.2,1.5,0.4,2.4,2,2.7
					c0.8,0.1,1.9,0.2,2.5,0.2c0.4,0,0.7,0.3,0.7,0.5c0,0.4-0.4,0.5-1.1,0.5c-3,0-7.4-0.2-8.1-0.2c-1,0-4.3,0.2-6.4,0.2
					c-0.7,0-1-0.2-1-0.5c0-0.2,0.2-0.5,0.8-0.5c0.8,0,1.4-0.1,1.8-0.2c1.1-0.2,1.4-1.2,1.5-2.7c0.2-2.1,0.2-6.1,0.2-10.7v-8.6H344.9
					z M351.5,183.8c0,0.5,0.1,0.7,0.5,0.9c1.1,0.4,2.7,0.5,4,0.5c2.1,0,2.8-0.2,3.7-0.8c1.6-1.1,3.4-3.3,3.4-7.5c0-7.1-4.9-9-7.9-9
					c-1.3,0-2.5,0.1-3.1,0.2c-0.4,0.1-0.5,0.3-0.5,0.7v15H351.5z"/>
				<path class="st0" d="M392.4,182.1h0.2c1.8-1.9,9.4-9.4,10.9-11.1s2.6-2.8,2.6-3.7c0-0.5-0.2-0.9-0.7-1s-0.7-0.2-0.7-0.5
					c0-0.4,0.3-0.5,0.8-0.5c1.1,0,4,0.1,5.4,0.1c1.6,0,4.5-0.1,6.1-0.1c0.5,0,0.9,0.1,0.9,0.5s-0.3,0.5-0.8,0.5
					c-0.8,0-2.1,0.2-3,0.6c-1.7,0.6-3.3,1.7-5.5,3.7c-1.7,1.5-9.4,8.9-11,10.7c1.8,2.4,12.1,13,14.1,14.9c2.3,2.1,4.3,4.3,7.1,5.4
					c1.5,0.7,2.6,0.7,3.2,0.7c0.4,0,0.7,0.2,0.7,0.5c0,0.4-0.3,0.5-1.2,0.5h-4.6c-1.5,0-2.5,0-3.6-0.1c-2.8-0.2-4.5-1.3-6.8-3.3
					s-12.3-13.6-13.4-15.1l-0.5-0.7h-0.2v4.6c0,4.6,0,8.6,0.1,10.8c0.1,1.4,0.6,2.4,1.9,2.6c0.7,0.1,1.9,0.2,2.5,0.2
					c0.4,0,0.7,0.3,0.7,0.5c0,0.4-0.4,0.5-1,0.5c-2.9,0-6.6-0.2-7.9-0.2c-1.2,0-4.5,0.2-6.6,0.2c-0.7,0-1-0.2-1-0.5
					c0-0.2,0.2-0.5,0.8-0.5c0.8,0,1.4-0.1,1.8-0.2c1.1-0.2,1.4-1.2,1.5-2.7c0.2-2.1,0.2-6.1,0.2-10.7v-8.9c0-7.6,0-9.1-0.1-10.7
					c-0.1-1.7-0.6-2.3-2.3-2.7c-0.4-0.1-1.3-0.2-2.1-0.2c-0.5,0-0.9-0.2-0.9-0.5c0-0.4,0.4-0.5,1.2-0.5c2.7,0,6,0.1,7.3,0.1
					c1.2,0,5-0.1,6.7-0.1c0.8,0,1.1,0.1,1.1,0.5s-0.3,0.5-0.7,0.5c-0.5,0-0.8,0.1-1.5,0.2c-1.4,0.2-1.8,0.9-2,2.7
					c-0.1,1.6-0.1,3-0.1,10.7v2.3H392.4z"/>
				<path class="st0" d="M426.2,179.9c0-7.6,0-9.1-0.1-10.7c-0.1-1.7-0.6-2.3-2.3-2.7c-0.4-0.1-1.3-0.2-2.1-0.2
					c-0.5,0-0.9-0.2-0.9-0.5c0-0.4,0.4-0.5,1.2-0.5c2.7,0,6,0.1,7.5,0.1c1.7,0,13.2,0.1,14.2,0c0.9-0.1,1.8-0.2,2.2-0.3
					c0.3-0.1,0.6-0.2,0.8-0.2c0.3,0,0.4,0.2,0.4,0.5c0,0.4-0.3,0.9-0.4,3.3c-0.1,0.5-0.2,2.7-0.3,3.3c-0.1,0.2-0.2,0.8-0.6,0.8
					s-0.4-0.2-0.4-0.7c0-0.4-0.1-1.2-0.4-1.8c-0.4-0.9-0.8-1.6-3.4-1.8c-0.9-0.1-7.1-0.2-8.2-0.2c-0.2,0-0.4,0.2-0.4,0.5v12.5
					c0,0.3,0.1,0.5,0.4,0.5c1.2,0,7.9,0,9.1-0.1s2-0.2,2.5-0.8c0.4-0.4,0.6-0.7,0.8-0.7c0.2,0,0.4,0.2,0.4,0.5s-0.1,1.1-0.4,3.7
					c-0.1,1-0.2,3-0.2,3.4s-0.1,1.1-0.5,1.1s-0.5-0.2-0.5-0.4c-0.1-0.5-0.1-1.2-0.2-1.8c-0.3-1-0.9-1.8-2.9-2
					c-0.9-0.1-6.9-0.2-8.2-0.2c-0.2,0-0.3,0.2-0.3,0.5v4c0,1.7-0.1,6,0,7.5c0.1,3.4,1.7,4.2,7.1,4.2c1.4,0,3.6-0.1,4.9-0.7
					s1.9-1.7,2.3-3.7c0.1-0.5,0.2-0.8,0.6-0.8s0.5,0.7,0.5,1.2c0,1.1-0.4,4.6-0.7,5.6c-0.4,1.3-0.8,1.3-2.8,1.3
					c-3.9,0-7.1-0.1-9.6-0.2s-4.5-0.1-6-0.1c-0.6,0-1.7,0.1-3,0.1c-1.2,0.1-2.5,0.1-3.6,0.1c-0.7,0-1-0.2-1-0.5
					c0-0.2,0.2-0.5,0.8-0.5c0.8,0,1.4-0.1,1.8-0.2c1.1-0.2,1.4-1.2,1.5-2.7c0.2-2.1,0.2-6.1,0.2-10.7v-9H426.2z"/>
				<path class="st0" d="M467.3,168.4l-7.8,0.2c-3,0.1-4.3,0.4-5,1.5c-0.5,0.7-0.8,1.4-0.9,1.7c-0.1,0.4-0.2,0.7-0.6,0.7
					s-0.5-0.3-0.5-0.8c0-0.8,1-5.7,1.1-6.1c0.1-0.7,0.3-0.9,0.6-0.9c0.4,0,0.9,0.4,2.3,0.6c1.5,0.2,3.5,0.2,5.2,0.2h21.2
					c1.7,0,2.8-0.1,3.6-0.2c0.8-0.1,1.2-0.2,1.4-0.2c0.4,0,0.4,0.3,0.4,1.1c0,1.1-0.1,4.8-0.1,6.1c-0.1,0.5-0.2,0.8-0.5,0.8
					c-0.4,0-0.5-0.2-0.6-1l-0.1-0.5c-0.1-1.3-1.5-2.8-6.2-2.9l-6.6-0.1V189c0,4.6,0.1,8.6,0.3,10.8c0.2,1.4,0.5,2.4,2,2.6
					c0.7,0.1,1.9,0.2,2.7,0.2c0.6,0,0.8,0.3,0.8,0.5c0,0.4-0.4,0.5-1,0.5c-3.4,0-6.9-0.2-8.4-0.2c-1.2,0-4.7,0.2-6.8,0.2
					c-0.7,0-1-0.2-1-0.5c0-0.2,0.2-0.5,0.8-0.5c0.8,0,1.4-0.1,1.8-0.2c1.1-0.2,1.4-1.2,1.5-2.7c0.2-2.1,0.2-6.1,0.2-10.7v-20.6
					H467.3z"/>
			</g>
			<g>
				
					<radialGradient id="SVGID_00000136411522005215565350000018127762360254333340_" cx="240.4196" cy="134.1647" r="232.8415" gradientTransform="matrix(1 0 0 -1 0 288)" gradientUnits="userSpaceOnUse">
					<stop  offset="0" style="stop-color:#8BC53F"/>
					<stop  offset="0.2582" style="stop-color:#7AC141"/>
					<stop  offset="0.7684" style="stop-color:#4DB847"/>
					<stop  offset="1" style="stop-color:#37B34A"/>
				</radialGradient>
				<path style="fill:url(#SVGID_00000136411522005215565350000018127762360254333340_);" d="M66,198.8c0,1.6-0.1,1.7-0.8,2.1
					c-3.8,2-9.6,2.7-14.2,2.7c-14.5,0-27.3-6.8-27.3-23.1c0-9.4,4.9-16,10.3-19.3c5.7-3.4,10.9-3.8,15.9-3.8c4.1,0,9.3,0.7,10.4,0.9
					c1.2,0.2,3.3,0.6,4.7,0.6c0.7,0.1,0.8,0.3,0.8,0.7c0,0.6-0.4,2.3-0.4,9.7c0,0.9-0.2,1.2-0.6,1.2s-0.5-0.3-0.6-0.8
					c-0.2-1.4-0.5-3.2-2-4.9c-1.8-1.9-6.5-4.6-13.2-4.6c-3.2,0-7.6,0.2-11.7,3.7c-3.3,2.8-5.4,7.2-5.4,14.5
					c0,12.7,8.1,22.2,20.5,22.2c1.5,0,3.6,0,5-0.6c0.9-0.4,1.1-1.2,1.1-2.2v-5.5c0-2.9,0-5.2-0.1-7c-0.1-2-0.6-2.9-2.5-3.4
					c-0.5-0.1-1.5-0.2-2.3-0.2c-0.5,0-0.9-0.1-0.9-0.5c0-0.5,0.4-0.6,1.2-0.6c3.1,0,6.8,0.2,8.6,0.2c1.8,0,5-0.2,6.9-0.2
					c0.8,0,1.2,0.1,1.2,0.6c0,0.4-0.4,0.5-0.8,0.5c-0.5,0-0.9,0.1-1.6,0.2c-1.6,0.3-2.2,1.3-2.2,3.4c-0.1,1.8-0.1,4.1-0.1,7.1v6.4
					H66z"/>
				
					<radialGradient id="SVGID_00000090288721479363294360000002043576004181524390_" cx="240.4196" cy="134.1647" r="232.8415" gradientTransform="matrix(1 0 0 -1 0 288)" gradientUnits="userSpaceOnUse">
					<stop  offset="0" style="stop-color:#8BC53F"/>
					<stop  offset="0.2582" style="stop-color:#7AC141"/>
					<stop  offset="0.7684" style="stop-color:#4DB847"/>
					<stop  offset="1" style="stop-color:#37B34A"/>
				</radialGradient>
				<path style="fill:url(#SVGID_00000090288721479363294360000002043576004181524390_);" d="M80.1,179.3c0-7.6,0-9-0.1-10.6
					c-0.1-1.7-0.6-2.2-2.2-2.7c-0.4-0.1-1.3-0.2-2.1-0.2c-0.5,0-0.9-0.2-0.9-0.5c0-0.4,0.4-0.5,1.2-0.5c2.7,0,6,0.1,7.1,0.1
					c1.8,0,6.5-0.1,8.1-0.1c3.3,0,7.1,0.3,9.9,2.1c1.5,1,3.7,3.5,3.7,6.9c0,3.7-2.1,7-7.2,11.1c4.6,5.7,8.3,10.2,11.4,13.3
					c2.9,2.9,4.7,3.1,5.5,3.3c0.5,0.1,0.8,0.1,1.2,0.1c0.4,0,0.6,0.3,0.6,0.5c0,0.4-0.4,0.5-1,0.5h-5c-2.9,0-4.3-0.3-5.7-1
					c-2.2-1.1-4.2-3.5-7.1-7.4c-2.1-2.7-4.2-6.1-4.9-6.8c-0.3-0.3-0.6-0.4-0.9-0.4l-4.7-0.1c-0.2,0-0.4,0.1-0.4,0.4v0.7
					c0,4.7,0.1,8.6,0.3,10.7c0.2,1.5,0.4,2.4,2,2.7c0.8,0.1,1.9,0.2,2.5,0.2c0.4,0,0.6,0.3,0.6,0.5c0,0.4-0.4,0.5-1.1,0.5
					c-3,0-7.3-0.2-8.1-0.2c-1,0-4.3,0.2-6.4,0.2c-0.6,0-1-0.2-1-0.5c0-0.2,0.2-0.5,0.8-0.5c0.8,0,1.4-0.1,1.8-0.2
					c1.1-0.2,1.4-1.2,1.5-2.7c0.2-2.1,0.2-6.1,0.2-10.7v-8.7H80.1z M86.7,183.2c0,0.5,0.1,0.7,0.5,0.9c1.1,0.4,2.7,0.5,4,0.5
					c2.1,0,2.8-0.2,3.7-0.8c1.6-1.1,3.4-3.3,3.4-7.4c0-7.1-4.8-8.9-7.9-8.9c-1.3,0-2.5,0.1-3.1,0.2c-0.4,0.1-0.5,0.3-0.5,0.7
					L86.7,183.2L86.7,183.2z"/>
				
					<radialGradient id="SVGID_00000010274278603666292830000014077490785414103486_" cx="240.4196" cy="134.1647" r="232.8415" gradientTransform="matrix(1 0 0 -1 0 288)" gradientUnits="userSpaceOnUse">
					<stop  offset="0" style="stop-color:#8BC53F"/>
					<stop  offset="0.2582" style="stop-color:#7AC141"/>
					<stop  offset="0.7684" style="stop-color:#4DB847"/>
					<stop  offset="1" style="stop-color:#37B34A"/>
				</radialGradient>
				<path style="fill:url(#SVGID_00000010274278603666292830000014077490785414103486_);" d="M120.5,179.3c0-7.6,0-9-0.1-10.6
					c-0.1-1.7-0.6-2.2-2.2-2.7c-0.4-0.1-1.3-0.2-2.1-0.2c-0.5,0-0.9-0.2-0.9-0.5c0-0.4,0.4-0.5,1.2-0.5c2.7,0,6,0.1,7.5,0.1
					c1.7,0,13.2,0.1,14.2,0c0.9-0.1,1.8-0.2,2.2-0.3c0.3-0.1,0.6-0.2,0.8-0.2c0.3,0,0.4,0.2,0.4,0.5c0,0.4-0.3,0.9-0.4,3.2
					c-0.1,0.5-0.2,2.7-0.3,3.3c-0.1,0.2-0.2,0.8-0.6,0.8c-0.4,0-0.4-0.2-0.4-0.6s-0.1-1.2-0.4-1.8c-0.4-0.9-0.8-1.6-3.4-1.8
					c-0.9-0.1-7.1-0.2-8.1-0.2c-0.2,0-0.4,0.2-0.4,0.5v12.4c0,0.3,0.1,0.5,0.4,0.5c1.2,0,7.9,0,9.1-0.1s2-0.2,2.5-0.8
					c0.4-0.4,0.6-0.6,0.8-0.6s0.4,0.2,0.4,0.5s-0.1,1.1-0.4,3.7c-0.1,1-0.2,3-0.2,3.4s-0.1,1.1-0.5,1.1s-0.5-0.2-0.5-0.4
					c-0.1-0.5-0.1-1.2-0.2-1.8c-0.3-1-0.9-1.8-2.9-1.9c-0.9-0.1-6.8-0.2-8.1-0.2c-0.2,0-0.3,0.2-0.3,0.5v4c0,1.7-0.1,6,0,7.4
					c0.1,3.4,1.7,4.2,7,4.2c1.4,0,3.5-0.1,4.9-0.6c1.3-0.6,1.9-1.7,2.2-3.7c0.1-0.5,0.2-0.8,0.6-0.8c0.4,0,0.5,0.6,0.5,1.2
					c0,1.1-0.4,4.5-0.7,5.5c-0.4,1.3-0.8,1.3-2.8,1.3c-3.9,0-7-0.1-9.6-0.2c-2.5-0.1-4.5-0.1-6-0.1c-0.6,0-1.7,0.1-2.9,0.1
					c-1.2,0.1-2.5,0.1-3.6,0.1c-0.6,0-1-0.2-1-0.5c0-0.2,0.2-0.5,0.8-0.5c0.8,0,1.4-0.1,1.8-0.2c1.1-0.2,1.4-1.2,1.5-2.7
					c0.2-2.1,0.2-6.1,0.2-10.7L120.5,179.3L120.5,179.3z"/>
				
					<radialGradient id="SVGID_00000072990166570234865620000012653085337833736579_" cx="240.4196" cy="134.1647" r="232.8415" gradientTransform="matrix(1 0 0 -1 0 288)" gradientUnits="userSpaceOnUse">
					<stop  offset="0" style="stop-color:#8BC53F"/>
					<stop  offset="0.2582" style="stop-color:#7AC141"/>
					<stop  offset="0.7684" style="stop-color:#4DB847"/>
					<stop  offset="1" style="stop-color:#37B34A"/>
				</radialGradient>
				<path style="fill:url(#SVGID_00000072990166570234865620000012653085337833736579_);" d="M153.3,179.3c0-7.6,0-9-0.1-10.6
					c-0.1-1.7-0.6-2.2-2.2-2.7c-0.4-0.1-1.3-0.2-2.1-0.2c-0.5,0-0.9-0.2-0.9-0.5c0-0.4,0.4-0.5,1.2-0.5c2.7,0,6,0.1,7.5,0.1
					c1.7,0,13.2,0.1,14.2,0c0.9-0.1,1.8-0.2,2.2-0.3c0.3-0.1,0.6-0.2,0.8-0.2c0.3,0,0.4,0.2,0.4,0.5c0,0.4-0.3,0.9-0.4,3.2
					c-0.1,0.5-0.2,2.7-0.3,3.3c-0.1,0.2-0.2,0.8-0.6,0.8c-0.4,0-0.4-0.2-0.4-0.6s-0.1-1.2-0.4-1.8c-0.4-0.9-0.8-1.6-3.4-1.8
					c-0.9-0.1-7.1-0.2-8.1-0.2c-0.2,0-0.4,0.2-0.4,0.5v12.4c0,0.3,0.1,0.5,0.4,0.5c1.2,0,7.9,0,9.1-0.1c1.2-0.1,2-0.2,2.5-0.8
					c0.4-0.4,0.6-0.6,0.8-0.6s0.4,0.2,0.4,0.5s-0.1,1.1-0.4,3.7c-0.1,1-0.2,3-0.2,3.4s-0.1,1.1-0.5,1.1s-0.5-0.2-0.5-0.4
					c-0.1-0.5-0.1-1.2-0.2-1.8c-0.3-1-0.9-1.8-2.9-1.9c-0.9-0.1-6.8-0.2-8.1-0.2c-0.2,0-0.3,0.2-0.3,0.5v4c0,1.7-0.1,6,0,7.4
					c0.1,3.4,1.7,4.2,7,4.2c1.4,0,3.5-0.1,4.9-0.6c1.3-0.6,1.9-1.7,2.2-3.7c0.1-0.5,0.2-0.8,0.6-0.8c0.4,0,0.5,0.6,0.5,1.2
					c0,1.1-0.4,4.5-0.7,5.5c-0.4,1.3-0.8,1.3-2.8,1.3c-3.9,0-7-0.1-9.6-0.2c-2.5-0.1-4.5-0.1-6-0.1c-0.6,0-1.7,0.1-2.9,0.1
					c-1.2,0.1-2.5,0.1-3.6,0.1c-0.6,0-1-0.2-1-0.5c0-0.2,0.2-0.5,0.8-0.5c0.8,0,1.4-0.1,1.8-0.2c1.1-0.2,1.4-1.2,1.5-2.7
					c0.2-2.1,0.2-6.1,0.2-10.7V179.3z"/>
				
					<radialGradient id="SVGID_00000038411297060511522390000014901451296769912232_" cx="240.4196" cy="134.1647" r="232.8415" gradientTransform="matrix(1 0 0 -1 0 288)" gradientUnits="userSpaceOnUse">
					<stop  offset="0" style="stop-color:#8BC53F"/>
					<stop  offset="0.2582" style="stop-color:#7AC141"/>
					<stop  offset="0.7684" style="stop-color:#4DB847"/>
					<stop  offset="1" style="stop-color:#37B34A"/>
				</radialGradient>
				<path style="fill:url(#SVGID_00000038411297060511522390000014901451296769912232_);" d="M189.4,195.9c0.1,3.9,0.8,5.1,1.8,5.4
					c0.9,0.3,1.9,0.4,2.7,0.4c0.6,0,0.9,0.2,0.9,0.5c0,0.4-0.5,0.5-1.2,0.5c-3.4,0-5.8-0.2-6.7-0.2c-0.5,0-2.9,0.2-5.6,0.2
					c-0.7,0-1.2-0.1-1.2-0.5c0-0.3,0.4-0.5,0.8-0.5c0.7,0,1.7-0.1,2.4-0.2c1.4-0.4,1.5-1.7,1.6-6.1l0.5-29.7c0-1,0.4-1.7,0.9-1.7
					c0.6,0,1.4,0.8,2.2,1.7c0.6,0.6,8.4,8.6,16,16c3.5,3.5,10.4,10.6,11.2,11.3h0.2l-0.5-22.3c-0.1-3.1-0.5-4-1.8-4.4
					c-0.8-0.3-2-0.3-2.7-0.3c-0.6,0-0.8-0.2-0.8-0.5c0-0.4,0.5-0.5,1.3-0.5c2.7,0,5.5,0.1,6.6,0.1c0.6,0,2.5-0.1,5.1-0.1
					c0.7,0,1.2,0.1,1.2,0.5c0,0.3-0.3,0.5-0.9,0.5c-0.5,0-0.9,0-1.6,0.2c-1.4,0.4-1.8,1.3-1.9,4.1l-0.6,31.6c0,1.1-0.4,1.6-0.8,1.6
					c-0.9,0-1.6-0.5-2.1-1.1c-3.2-3-9.7-9.2-15.2-14.5c-5.7-5.4-11.2-11.5-12.2-12.4h-0.2L189.4,195.9z"/>
			</g>
		</g>
	</g>
	
		<radialGradient id="SVGID_00000114070197700740268030000016716843981882433937_" cx="240.4196" cy="134.1647" r="232.8415" gradientTransform="matrix(1 0 0 -1 0 288)" gradientUnits="userSpaceOnUse">
		<stop  offset="0" style="stop-color:#8BC53F"/>
		<stop  offset="0.2582" style="stop-color:#7AC141"/>
		<stop  offset="0.7684" style="stop-color:#4DB847"/>
		<stop  offset="1" style="stop-color:#37B34A"/>
	</radialGradient>
	<path style="fill:url(#SVGID_00000114070197700740268030000016716843981882433937_);" d="M147.6,240.1c-0.2,0-0.3,0.1-0.4,0.5
		c-0.2,1.4-0.7,2.1-1.6,2.6c-0.9,0.4-2.3,0.4-3.2,0.4c-3.5,0-4.1-0.5-4.1-2.9c0-1,0-4.2,0-5.4v-2.7c0-0.2,0-0.3,0.2-0.3
		c0.8,0,4.2,0,4.9,0.1c1.3,0.1,1.8,0.7,1.9,1.3c0.1,0.4,0.1,0.9,0.1,1.2c0,0.2,0.1,0.3,0.3,0.3c0.3,0,0.3-0.4,0.3-0.7
		c0-0.2,0.1-1.6,0.1-2.3c0.1-1.8,0.3-2.3,0.3-2.5s-0.1-0.3-0.2-0.3c-0.2,0-0.3,0.2-0.6,0.4c-0.3,0.3-0.8,0.4-1.7,0.5
		c-0.8,0.1-4.8,0.1-5.5,0.1c-0.2,0-0.2-0.1-0.2-0.4v-8.7c0-0.2,0.1-0.3,0.2-0.3c0.7,0,4.3,0.1,4.9,0.1c1.7,0.2,2.1,0.6,2.3,1.2
		c0.2,0.4,0.2,1,0.2,1.2c0,0.3,0.1,0.5,0.3,0.5s0.3-0.2,0.3-0.4c0.1-0.4,0.1-1.9,0.2-2.3c0.1-1.6,0.3-2,0.3-2.2s0-0.3-0.2-0.3
		s-0.4,0.1-0.6,0.1c-0.3,0.1-0.8,0.1-1.5,0.2c-0.7,0-7.5,0-8.6,0c-0.5,0-1.3,0-2.2-0.1c-0.9,0-1.9,0-2.8,0c-0.5,0-0.8,0.1-0.8,0.3
		c0,0.2,0.2,0.3,0.6,0.3c0.5,0,1.1,0,1.3,0.1c1.1,0.2,1.4,0.8,1.5,2c0.1,1.1,0.1,2.1,0.1,7.3v6.1c0,3.2,0,5.9-0.2,7.4
		c-0.1,1-0.3,1.8-1,1.9c-0.3,0.1-0.7,0.1-1.2,0.1c-0.4,0-0.6,0.1-0.6,0.3c0,0.2,0.2,0.3,0.7,0.3c0.7,0,1.6-0.1,2.4-0.1
		c0.8,0,1.6,0,2,0c1,0,2.1,0,3.6,0.1c0.9,0,2,0.1,3.3,0.1c2.5,0,4.7,0.4,4.8-2.1c0.1-0.9,0.2-2.1,0.2-2.6
		C147.9,240.4,147.9,240.1,147.6,240.1z M317.8,219.3c-1.7,0-3,0.1-3.4,0.1c-0.7,0-2.4-0.1-4.2-0.1c-0.5,0-0.9,0-0.9,0.3
		c0,0.2,0.1,0.3,0.6,0.3s1.3,0,1.8,0.2c0.8,0.3,1.1,1,1.2,3.1l0.3,15.5H313c-0.6-0.6-5.2-5.5-7.6-7.9c-5-5-10.3-10.6-10.7-11.1
		c-0.6-0.6-0.9-1.1-1.3-1.1c-0.3,0-0.4,0.5-0.4,1.2l-0.3,20.4c0,3-0.2,4-1.1,4.3c-0.5,0.1-1.1,0.2-1.6,0.2c-0.3,0-0.6,0.1-0.6,0.3
		c0,0.3,0.3,0.3,0.8,0.3c1.8,0,3.4-0.1,3.7-0.1c0.7,0,2,0.1,4.3,0.1c0.5,0,0.8-0.1,0.8-0.3c0-0.2-0.2-0.3-0.6-0.3
		c-0.6,0-1.2,0-1.8-0.2c-0.7-0.2-1.1-1.1-1.2-3.8l-0.4-14.5h0.1c0.6,0.7,4.5,5,8.2,8.7c3.6,3.6,8,8.1,10.2,10.1
		c0.4,0.4,0.8,0.8,1.2,0.8c0.3,0,0.4-0.3,0.4-1.1l0.4-21.8c0-1.9,0.3-2.7,1.3-2.9c0.4-0.1,0.7-0.1,1-0.1c0.4,0,0.6-0.1,0.6-0.3
		C318.6,219.3,318.3,219.3,317.8,219.3z M354.5,232.4c-1.1,0-3,0.1-4,0.1s-3.2-0.1-5-0.1c-0.5,0-0.7,0.1-0.7,0.3
		c0,0.2,0.2,0.3,0.5,0.3c0.5,0,1.1,0,1.3,0.1c1.1,0.2,1.5,0.8,1.5,2c0,1,0,2.3,0,4.1v3.2c0,0.6-0.1,1-0.7,1.3
		c-0.8,0.4-2,0.4-2.9,0.4c-7.3,0-12-5.6-12-13c0-4.2,1.2-6.8,3.2-8.5c2.4-2,4.9-2.1,6.8-2.1c3.9,0,6.7,1.6,7.7,2.7
		c0.9,1,1.1,2.1,1.2,2.9c0,0.3,0.1,0.4,0.3,0.4c0.3,0,0.4-0.2,0.4-0.7c0-4.3,0.2-5.3,0.2-5.7c0-0.2-0.1-0.4-0.5-0.4
		c-0.8,0-2-0.2-2.7-0.4c-0.7-0.1-3.7-0.6-6.1-0.6c-2.9,0-6,0.2-9.3,2.2c-3.1,1.9-6,5.8-6,11.3c0,9.5,7.5,13.5,15.9,13.5
		c2.7,0,6.1-0.4,8.3-1.6c0.4-0.2,0.4-0.3,0.4-1.2v-3.8c0-1.7,0-3.1,0-4.1c0-1.2,0.4-1.8,1.3-2c0.4-0.1,0.7-0.1,0.9-0.1
		c0.2,0,0.4-0.1,0.4-0.3C355.2,232.5,355,232.4,354.5,232.4z M381.3,240.1c-0.2,0-0.3,0.1-0.4,0.5c-0.2,1.4-0.7,2.1-1.6,2.6
		c-0.9,0.4-2.3,0.4-3.2,0.4c-3.5,0-4.1-0.5-4.1-2.9c0-1,0-4.2,0-5.4v-2.7c0-0.2,0-0.3,0.2-0.3c0.8,0,4.2,0,4.9,0.1
		c1.3,0.1,1.8,0.7,1.9,1.3c0.1,0.4,0.1,0.9,0.1,1.2c0,0.2,0.1,0.3,0.3,0.3c0.3,0,0.3-0.4,0.3-0.7c0-0.2,0.1-1.6,0.1-2.3
		c0.1-1.8,0.3-2.3,0.3-2.5s-0.1-0.3-0.2-0.3c-0.2,0-0.3,0.2-0.6,0.4c-0.3,0.3-0.8,0.4-1.7,0.5c-0.8,0.1-4.8,0.1-5.5,0.1
		c-0.2,0-0.2-0.1-0.2-0.4v-8.7c0-0.2,0.1-0.3,0.2-0.3c0.7,0,4.3,0.1,4.9,0.1c1.7,0.2,2.1,0.6,2.3,1.2c0.2,0.4,0.2,1,0.2,1.2
		c0,0.3,0.1,0.5,0.3,0.5s0.3-0.2,0.3-0.4c0.1-0.4,0.1-1.9,0.2-2.3c0.1-1.6,0.3-2,0.3-2.2s0-0.3-0.2-0.3s-0.4,0.1-0.6,0.1
		c-0.3,0.1-0.8,0.1-1.5,0.2c-0.7,0-7.5,0-8.6,0c-0.5,0-1.3,0-2.2-0.1c-0.9,0-1.9,0-2.8,0c-0.5,0-0.8,0.1-0.8,0.3
		c0,0.2,0.2,0.3,0.6,0.3c0.5,0,1.1,0,1.3,0.1c1.1,0.2,1.4,0.8,1.5,2c0.1,1.1,0.1,2.1,0.1,7.3v6.1c0,3.2,0,5.9-0.2,7.4
		c-0.1,1-0.3,1.8-1,1.9c-0.3,0.1-0.7,0.1-1.2,0.1c-0.4,0-0.6,0.1-0.6,0.3c0,0.2,0.2,0.3,0.7,0.3c0.7,0,1.6-0.1,2.4-0.1s1.6,0,2,0
		c1,0,2.1,0,3.6,0.1c1.5,0,3.4,0.1,6,0.1c1.3,0,1.6,0,1.9-0.9c0.2-0.7,0.4-3,0.4-3.8C381.6,240.4,381.6,240.1,381.3,240.1z
		 M250.4,244.8c-0.5,0-1.3-0.1-1.8-0.1c-1-0.1-1.2-0.9-1.3-1.9c-0.2-1.5-0.2-4.2-0.2-7.4v-6.1c0-5.2,0-6.2,0.1-7.3
		c0.1-1.2,0.3-1.8,1.3-2c0.4-0.1,0.7-0.1,1-0.1c0.4,0,0.6-0.1,0.6-0.3c0-0.2-0.2-0.3-0.7-0.3c-1.3,0-3.5,0.1-4.3,0.1
		c-0.9,0-3.1-0.1-5-0.1c-0.5,0-0.7,0.1-0.7,0.3c0,0.2,0.2,0.3,0.6,0.3c0.5,0,1.1,0,1.3,0.1c1.1,0.2,1.4,0.8,1.5,2
		c0.1,1.1,0.1,2.1,0.1,7.3v0.7c0,0.2-0.1,0.2-0.2,0.2h-13.2c-0.1,0-0.2-0.1-0.2-0.2v-0.7c0-5.2,0-6.2,0.1-7.3c0.1-1.2,0.3-1.8,1.3-2
		c0.4-0.1,0.7-0.1,1-0.1c0.4,0,0.6-0.1,0.6-0.3c0-0.2-0.2-0.3-0.7-0.3c-1.3,0-3.5,0.1-4.3,0.1c-0.9,0-3.1-0.1-5-0.1
		c-0.5,0-0.7,0.1-0.7,0.3c0,0.2,0.2,0.3,0.6,0.3c0.5,0,1.1,0,1.3,0.1c1.1,0.2,1.4,0.8,1.5,2c0.1,1.1,0.1,2.1,0.1,7.3v6.1
		c0,3.2,0,5.9-0.2,7.4c-0.1,1-0.3,1.8-1,1.9c-0.3,0.1-0.7,0.1-1.2,0.1c-0.4,0-0.6,0.1-0.6,0.3c0,0.2,0.2,0.3,0.7,0.3
		c1.4,0,3.6-0.1,4.3-0.1c1,0,3.1,0.1,5.4,0.1c0.4,0,0.7-0.1,0.7-0.3c0-0.2-0.2-0.3-0.6-0.3c-0.5,0-1.3-0.1-1.8-0.1
		c-1-0.1-1.2-0.9-1.3-1.9c-0.2-1.5-0.2-4.2-0.2-7.4v-3c0-0.2,0.1-0.2,0.2-0.2h13.2c0.1,0,0.2,0.1,0.2,0.2v3c0,3.2,0,5.9-0.2,7.4
		c-0.1,1-0.3,1.8-1,1.9c-0.3,0.1-0.7,0.1-1.2,0.1c-0.4,0-0.6,0.1-0.6,0.3c0,0.2,0.2,0.3,0.7,0.3c1.3,0,3.5-0.1,4.3-0.1
		c1,0,3.1,0.1,5.4,0.1c0.4,0,0.7-0.1,0.7-0.3C250.9,244.9,250.7,244.8,250.4,244.8z M211.6,239c-0.3,0-0.3,0.1-0.4,0.7
		c-0.1,0.6-0.6,1.6-1.2,2.3c-1.4,1.6-3.2,1.9-6.3,1.9c-4.6,0-10.9-4.1-10.9-12.3c0-3.3,0.7-6.6,3.2-8.9c1.5-1.4,3.5-2.1,6.5-2.1
		c3.2,0,5.9,0.9,7,2.1c0.9,0.9,1.3,2.1,1.3,3.2c0,0.5,0.1,0.8,0.3,0.8c0.3,0,0.4-0.3,0.4-0.8c0.1-0.7,0-2.6,0.1-3.7
		c0.1-1.2,0.2-1.6,0.2-1.9c0-0.2-0.1-0.4-0.5-0.4c-1-0.1-2.1-0.4-3.5-0.6c-1.6-0.2-2.9-0.3-5-0.3c-5.1,0-8.4,1.4-10.9,3.7
		c-3.3,3-4,7.1-4,9.5c0,3.3,0.9,7.2,4.3,10.2c3.1,2.7,7.1,3.8,11.8,3.8c2.2,0,4.8-0.2,6.2-0.8c0.6-0.2,0.7-0.4,0.9-1
		c0.3-1.2,0.8-4.2,0.8-4.6C211.9,239.2,211.9,239,211.6,239z M284,244.8c-0.4,0-0.9,0-1.5-0.1c-0.7-0.2-1.7-0.7-3-3.8
		c-2.2-5.2-7.7-19.3-8.6-21.2c-0.3-0.8-0.6-1.1-0.9-1.1s-0.6,0.4-1,1.4l-8.7,21.7c-0.7,1.7-1.3,2.9-2.9,3.1c-0.3,0-0.8,0.1-1.1,0.1
		c-0.3,0-0.4,0.1-0.4,0.3c0,0.3,0.2,0.3,0.7,0.3c1.8,0,3.7-0.1,4.1-0.1c1.1,0,2.6,0.1,3.7,0.1c0.4,0,0.6-0.1,0.6-0.3
		c0-0.2-0.1-0.3-0.5-0.3H264c-1.1,0-1.4-0.4-1.4-1.1c0-0.4,0.2-1.2,0.5-2.1l1.9-4.9c0.1-0.2,0.1-0.3,0.3-0.3h7.7
		c0.2,0,0.3,0.1,0.3,0.2l2.8,7.3c0.2,0.4-0.1,0.7-0.3,0.8c-0.3,0-0.5,0.1-0.5,0.3c0,0.2,0.4,0.2,1,0.3c2.8,0.1,5.3,0.1,6.5,0.1
		c1.3,0,1.6-0.1,1.6-0.3C284.5,244.8,284.3,244.8,284,244.8z M272.4,234.7H266c-0.1,0-0.2-0.1-0.1-0.2l3.2-8.5
		c0-0.1,0.1-0.3,0.2-0.3s0.1,0.2,0.2,0.3l3.1,8.5C272.6,234.6,272.5,234.7,272.4,234.7z"/>
	<g>
		
			<radialGradient id="SVGID_00000059270637506565635680000013919460828077996435_" cx="182.0715" cy="81.549" r="61.9628" gradientTransform="matrix(1 0 0 -1 0 288)" gradientUnits="userSpaceOnUse">
			<stop  offset="0" style="stop-color:#8BC53F"/>
			<stop  offset="0.2582" style="stop-color:#7AC141"/>
			<stop  offset="0.7684" style="stop-color:#4DB847"/>
			<stop  offset="1" style="stop-color:#37B34A"/>
		</radialGradient>
		<path style="fill:url(#SVGID_00000059270637506565635680000013919460828077996435_);" d="M170.4,231c1.1,1.7,6.7,11,7.5,12.1
			c0.6,0.8,1.1,1.2,2,1.4c0.6,0.2,1,0.2,1.3,0.2c0.2,0,0.4,0.1,0.4,0.3c0,0.2-0.3,0.3-0.7,0.3h-1c-0.8,0-3.5,0-6.2-0.1
			c-0.9,0-1.2-0.1-1.2-0.3c0-0.2,0.2-0.3,0.5-0.4c0.2,0,0.3-0.3,0.1-0.8c-1.9-3.4-3.9-6.8-5.4-9.4l-5.1,8.2
			c-0.3,0.6-0.5,1.1-0.5,1.4s0.3,0.5,0.7,0.6c0.2,0,0.5,0.1,0.8,0.1c0.2,0,0.4,0.1,0.4,0.3c0,0.2-0.2,0.3-0.7,0.3h-0.6
			c-0.2,0-2.4-0.1-3.2-0.1c-0.7,0-2.3,0.1-2.9,0.1H156c-0.3,0-0.5-0.1-0.5-0.3c0-0.2,0.2-0.3,0.5-0.3c0.2,0,0.8,0,1.3-0.2
			c1-0.3,1.7-0.9,2.8-2.6l6.6-9.4l-5.9-9.8c-0.8-1.4-1.7-2.2-2.9-2.6c-0.6-0.2-1.1-0.2-1.4-0.2c-0.2,0-0.3-0.1-0.3-0.3
			c0-0.2,0.2-0.3,0.7-0.3c0.8,0,3.6,0.1,5.2,0.1c0.5,0,2.4-0.1,3.7-0.1c0.5,0,0.7,0.1,0.7,0.3c0,0.2-0.2,0.3-0.5,0.3
			c-0.2,0-0.7,0-0.9,0.1c-0.3,0.1-0.4,0.3-0.4,0.6c0,0.2,0.1,0.6,0.3,1c1.5,2.8,3,5.3,4.4,7.6c1-1.5,4.2-6.3,4.7-7.3
			c0.3-0.5,0.4-1,0.4-1.3c0-0.2-0.2-0.5-0.6-0.6c-0.3-0.1-0.8-0.1-1.1-0.1c-0.2,0-0.4-0.1-0.4-0.3c0-0.2,0.2-0.3,0.7-0.3
			c1.3,0,2.8,0.1,3.4,0.1c0.7,0,2.1-0.1,3.4-0.1c0.4,0,0.6,0.1,0.6,0.3c0,0.2-0.2,0.3-0.6,0.3c-0.3,0-0.8,0.1-1.2,0.2
			c-0.8,0.2-1.5,1.2-2.5,2.7L170.4,231z"/>
	</g>
</g>
</svg>
