<?xml version="1.0" standalone="no"?>
<!DOCTYPE svg PUBLIC "-//W3C//DTD SVG 20010904//EN"
 "http://www.w3.org/TR/2001/REC-SVG-20010904/DTD/svg10.dtd">
<svg version="1.0" xmlns="http://www.w3.org/2000/svg"
 width="150.000000pt" height="150.000000pt" viewBox="0 0 150.000000 150.000000"
 preserveAspectRatio="xMidYMid meet">
<metadata>
Created by potrace 1.14, written by Peter Selinger 2001-2017
</metadata>
<g transform="translate(0.000000,150.000000) scale(0.100000,-0.100000)"
fill="#000000" stroke="none">
<path d="M0 750 l0 -750 750 0 750 0 0 750 0 750 -750 0 -750 0 0 -750z m812
473 c32 -32 58 -62 58 -68 0 -6 -27 -37 -60 -70 l-60 -59 0 -136 1 -135 147
153 147 154 78 -20 c43 -11 81 -22 83 -25 6 -6 -32 -156 -41 -165 -3 -4 -42 3
-86 14 l-79 20 -115 -65 c-63 -35 -117 -73 -121 -83 -3 -9 21 -103 52 -208
l57 -191 -61 -62 -62 -62 -60 60 c-33 33 -60 64 -60 70 0 6 25 35 54 64 l55
54 3 140 3 139 -145 -152 -145 -152 -78 20 c-43 11 -81 22 -83 25 -6 6 32 156
41 165 3 4 42 -3 87 -14 l80 -21 114 66 c63 36 117 74 120 83 3 10 -21 103
-52 208 l-57 191 59 60 c32 32 61 59 63 59 3 0 31 -26 63 -57z m369 35 c0 -10
2 -10 6 0 2 6 11 12 19 12 16 0 20 -45 4 -55 -5 -3 -10 -2 -10 3 0 5 -7 9 -15
9 -8 0 -15 -4 -15 -9 0 -5 -4 -6 -10 -3 -5 3 -10 15 -10 26 0 10 -4 19 -10 19
-5 0 -10 -12 -10 -26 0 -31 -16 -24 -22 11 -5 23 -2 25 33 25 24 0 39 -5 40
-12z m-695 -282 l20 -79 113 -65 c61 -35 110 -67 107 -69 -6 -6 -369 76 -386
87 -12 8 -54 159 -46 167 8 8 140 42 156 40 10 -2 22 -29 36 -81z m492 -280
c101 -24 185 -46 188 -49 9 -8 46 -159 40 -164 -11 -11 -160 -43 -167 -36 -4
4 -16 41 -26 82 l-19 74 -106 61 c-59 34 -110 65 -114 69 -13 13 20 7 204 -37z"/>
</g>
</svg>
